# xmcd
#
# Track frame offsets: 
#        150
#        9633
#        18887
#        37671
#        58866
#        72215
#        83946
#        95371
#        107054
#        119001
#        131568
#        144971
#        169092
#        175536
#        185337
#        193365
#        201384
#        214458
#        221839
#        231503
#        244927
#        260129
#        273291
#        282323
#        290202
#        295926
#        305139
#
# Disc length: 4209 seconds
#
# Revision: 1
# Processed by: cddbd v1.5PL3 Copyright (c) Steve Scherf et al.
# Submitted via: ExactAudioCopy v0.95a3
#
DISCID=b3106f1b
DTITLE=Владимир Высоцкий - Собрание Сочинений 2
DYEAR=2001
DGENRE=Vocal
TTITLE0=Песня о переселении душ
TTITLE1=Про ночь
TTITLE2=Лукоморье
TTITLE3=Письмо в редакцию
TTITLE4=Не состоялось
TTITLE5=Песня о Вещем Олеге
TTITLE6=Песня о конькобежце
TTITLE7=Песня о диком вепре
TTITLE8=Товарищи учёные
TTITLE9=Поездка в город
TTITLE10=На таможне
TTITLE11=10 лет. Юбилейная песня
TTITLE12=Разговор с женой
TTITLE13=Возле города Пекина
TTITLE14=Формулировка
TTITLE15=Я любил и женщин и проказы
TTITLE16=Слухи
TTITLE17=Про любовь в каменном веке
TTITLE18=Марш космических негодяев
TTITLE19=Кругом пятьсот
TTITLE20=Жертва телевидения
TTITLE21=О нашей встрече
TTITLE22=Про сумашедший дом
TTITLE23=На Перовском на базаре
TTITLE24=Каждому хочется малость погреться
TTITLE25=На Большом Каретном
TTITLE26=Песня автозавистника
EXTD=
EXTT0=
EXTT1=
EXTT2=
EXTT3=
EXTT4=
EXTT5=
EXTT6=
EXTT7=
EXTT8=
EXTT9=
EXTT10=
EXTT11=
EXTT12=
EXTT13=
EXTT14=
EXTT15=
EXTT16=
EXTT17=
EXTT18=
EXTT19=
EXTT20=
EXTT21=
EXTT22=
EXTT23=
EXTT24=
EXTT25=
EXTT26=
PLAYORDER=
